<svg width="209" height="51" viewBox="0 0 209 51" fill="none" xmlns="http://www.w3.org/2000/svg">
<path d="M1.67045 27.6136V25.0568C3.59091 25.0568 4.93182 24.6648 5.69318 23.8807C6.45455 23.0852 6.83523 21.7727 6.83523 19.9432V15.0511C6.83523 13.3125 7.02841 11.8523 7.41477 10.6705C7.8125 9.47727 8.41477 8.52273 9.22159 7.80682C10.0284 7.09091 11.0511 6.57386 12.2898 6.25568C13.5284 5.9375 14.9886 5.77841 16.6705 5.77841V9.81818C15.3523 9.81818 14.3239 10.0114 13.5852 10.3977C12.8466 10.7841 12.3295 11.3864 12.0341 12.2045C11.75 13.0114 11.608 14.0455 11.608 15.3068V21.5114C11.608 22.3864 11.4773 23.1989 11.2159 23.9489C10.9545 24.6875 10.4716 25.3295 9.76705 25.875C9.0625 26.4205 8.05682 26.8466 6.75 27.1534C5.44318 27.4602 3.75 27.6136 1.67045 27.6136ZM16.6705 49.2614C14.9886 49.2614 13.5284 49.1023 12.2898 48.7841C11.0511 48.4659 10.0284 47.9489 9.22159 47.233C8.41477 46.517 7.8125 45.5625 7.41477 44.3693C7.02841 43.1875 6.83523 41.7273 6.83523 39.9886V35.0795C6.83523 33.2614 6.45455 31.9545 5.69318 31.1591C4.93182 30.3636 3.59091 29.9659 1.67045 29.9659V27.4261C3.75 27.4261 5.44318 27.5795 6.75 27.8864C8.05682 28.1818 9.0625 28.608 9.76705 29.1648C10.4716 29.7102 10.9545 30.358 11.2159 31.108C11.4773 31.8466 11.608 32.6534 11.608 33.5284V39.733C11.608 40.983 11.75 42.0114 12.0341 42.8182C12.3295 43.6364 12.8466 44.2386 13.5852 44.625C14.3239 45.0227 15.3523 45.2216 16.6705 45.2216V49.2614ZM1.67045 29.9659V25.0568H6.39205V29.9659H1.67045Z" fill="black"/>
<path d="M207.33 26.3864V28.9432C205.409 28.9432 204.068 29.3352 203.307 30.1193C202.545 30.9148 202.165 32.2273 202.165 34.0568V38.9489C202.165 40.6875 201.972 42.1477 201.585 43.3295C201.187 44.5227 200.585 45.4773 199.778 46.1932C198.972 46.9091 197.949 47.4261 196.71 47.7443C195.472 48.0625 194.011 48.2216 192.33 48.2216V44.1818C193.648 44.1818 194.676 43.9886 195.415 43.6023C196.153 43.2159 196.67 42.6136 196.966 41.7955C197.25 40.9886 197.392 39.9545 197.392 38.6932V32.4886C197.392 31.6136 197.523 30.8011 197.784 30.0511C198.045 29.3125 198.528 28.6705 199.233 28.125C199.937 27.5795 200.943 27.1534 202.25 26.8466C203.557 26.5398 205.25 26.3864 207.33 26.3864ZM192.33 4.73864C194.011 4.73864 195.472 4.89773 196.71 5.21591C197.949 5.53409 198.972 6.05114 199.778 6.76705C200.585 7.48295 201.187 8.4375 201.585 9.63068C201.972 10.8125 202.165 12.2727 202.165 14.0114V18.9205C202.165 20.7386 202.545 22.0455 203.307 22.8409C204.068 23.6364 205.409 24.0341 207.33 24.0341V26.5739C205.25 26.5739 203.557 26.4205 202.25 26.1136C200.943 25.8182 199.937 25.392 199.233 24.8352C198.528 24.2898 198.045 23.642 197.784 22.892C197.523 22.1534 197.392 21.3466 197.392 20.4716V14.267C197.392 13.017 197.25 11.9886 196.966 11.1818C196.67 10.3636 196.153 9.76136 195.415 9.375C194.676 8.97727 193.648 8.77841 192.33 8.77841V4.73864ZM207.33 24.0341V28.9432H202.608V24.0341H207.33Z" fill="black"/>
<path d="M26.548 30.064C26.548 28.048 26.956 26.284 27.772 24.772C28.588 23.236 29.704 22.048 31.12 21.208C32.56 20.368 34.168 19.948 35.944 19.948C37.48 19.948 38.908 20.308 40.228 21.028C41.548 21.724 42.556 22.648 43.252 23.8V13.36H46.564V40H43.252V36.292C42.604 37.468 41.644 38.44 40.372 39.208C39.1 39.952 37.612 40.324 35.908 40.324C34.156 40.324 32.56 39.892 31.12 39.028C29.704 38.164 28.588 36.952 27.772 35.392C26.956 33.832 26.548 32.056 26.548 30.064ZM43.252 30.1C43.252 28.612 42.952 27.316 42.352 26.212C41.752 25.108 40.936 24.268 39.904 23.692C38.896 23.092 37.78 22.792 36.556 22.792C35.332 22.792 34.216 23.08 33.208 23.656C32.2 24.232 31.396 25.072 30.796 26.176C30.196 27.28 29.896 28.576 29.896 30.064C29.896 31.576 30.196 32.896 30.796 34.024C31.396 35.128 32.2 35.98 33.208 36.58C34.216 37.156 35.332 37.444 36.556 37.444C37.78 37.444 38.896 37.156 39.904 36.58C40.936 35.98 41.752 35.128 42.352 34.024C42.952 32.896 43.252 31.588 43.252 30.1ZM72.4401 29.38C72.4401 30.004 72.4041 30.664 72.3321 31.36H56.5641C56.6841 33.304 57.3441 34.828 58.5441 35.932C59.7681 37.012 61.2441 37.552 62.9721 37.552C64.3881 37.552 65.5641 37.228 66.5001 36.58C67.4601 35.908 68.1321 35.02 68.5161 33.916H72.0441C71.5161 35.812 70.4601 37.36 68.8761 38.56C67.2921 39.736 65.3241 40.324 62.9721 40.324C61.1001 40.324 59.4201 39.904 57.9321 39.064C56.4681 38.224 55.3161 37.036 54.4761 35.5C53.6361 33.94 53.2161 32.14 53.2161 30.1C53.2161 28.06 53.6241 26.272 54.4401 24.736C55.2561 23.2 56.3961 22.024 57.8601 21.208C59.3481 20.368 61.0521 19.948 62.9721 19.948C64.8441 19.948 66.5001 20.356 67.9401 21.172C69.3801 21.988 70.4841 23.116 71.2521 24.556C72.0441 25.972 72.4401 27.58 72.4401 29.38ZM69.0561 28.696C69.0561 27.448 68.7801 26.38 68.2281 25.492C67.6761 24.58 66.9201 23.896 65.9601 23.44C65.0241 22.96 63.9801 22.72 62.8281 22.72C61.1721 22.72 59.7561 23.248 58.5801 24.304C57.4281 25.36 56.7681 26.824 56.6001 28.696H69.0561ZM86.4483 36.976L92.5683 20.272H96.0603L88.3203 40H84.5043L76.7643 20.272H80.2923L86.4483 36.976ZM115.304 25.42V28.192H100.94V25.42H115.304ZM122.568 30.064C122.568 28.048 122.976 26.284 123.792 24.772C124.608 23.236 125.724 22.048 127.14 21.208C128.58 20.368 130.176 19.948 131.928 19.948C133.656 19.948 135.156 20.32 136.428 21.064C137.7 21.808 138.648 22.744 139.272 23.872V20.272H142.584V40H139.272V36.328C138.624 37.48 137.652 38.44 136.356 39.208C135.084 39.952 133.596 40.324 131.892 40.324C130.14 40.324 128.556 39.892 127.14 39.028C125.724 38.164 124.608 36.952 123.792 35.392C122.976 33.832 122.568 32.056 122.568 30.064ZM139.272 30.1C139.272 28.612 138.972 27.316 138.372 26.212C137.772 25.108 136.956 24.268 135.924 23.692C134.916 23.092 133.8 22.792 132.576 22.792C131.352 22.792 130.236 23.08 129.228 23.656C128.22 24.232 127.416 25.072 126.816 26.176C126.216 27.28 125.916 28.576 125.916 30.064C125.916 31.576 126.216 32.896 126.816 34.024C127.416 35.128 128.22 35.98 129.228 36.58C130.236 37.156 131.352 37.444 132.576 37.444C133.8 37.444 134.916 37.156 135.924 36.58C136.956 35.98 137.772 35.128 138.372 34.024C138.972 32.896 139.272 31.588 139.272 30.1ZM149.236 30.064C149.236 28.048 149.644 26.284 150.46 24.772C151.276 23.236 152.392 22.048 153.808 21.208C155.248 20.368 156.856 19.948 158.632 19.948C160.168 19.948 161.596 20.308 162.916 21.028C164.236 21.724 165.244 22.648 165.94 23.8V13.36H169.252V40H165.94V36.292C165.292 37.468 164.332 38.44 163.06 39.208C161.788 39.952 160.3 40.324 158.596 40.324C156.844 40.324 155.248 39.892 153.808 39.028C152.392 38.164 151.276 36.952 150.46 35.392C149.644 33.832 149.236 32.056 149.236 30.064ZM165.94 30.1C165.94 28.612 165.64 27.316 165.04 26.212C164.44 25.108 163.624 24.268 162.592 23.692C161.584 23.092 160.468 22.792 159.244 22.792C158.02 22.792 156.904 23.08 155.896 23.656C154.888 24.232 154.084 25.072 153.484 26.176C152.884 27.28 152.584 28.576 152.584 30.064C152.584 31.576 152.884 32.896 153.484 34.024C154.084 35.128 154.888 35.98 155.896 36.58C156.904 37.156 158.02 37.444 159.244 37.444C160.468 37.444 161.584 37.156 162.592 36.58C163.624 35.98 164.44 35.128 165.04 34.024C165.64 32.896 165.94 31.588 165.94 30.1ZM178.82 17.068C178.196 17.068 177.668 16.852 177.236 16.42C176.804 15.988 176.588 15.46 176.588 14.836C176.588 14.212 176.804 13.684 177.236 13.252C177.668 12.82 178.196 12.604 178.82 12.604C179.42 12.604 179.924 12.82 180.332 13.252C180.764 13.684 180.98 14.212 180.98 14.836C180.98 15.46 180.764 15.988 180.332 16.42C179.924 16.852 179.42 17.068 178.82 17.068ZM180.404 20.272V40H177.128V20.272H180.404Z" fill="black"/>
</svg>
